<svg width="18" height="19" viewBox="0 0 18 19" fill="none" xmlns="http://www.w3.org/2000/svg">
<path d="M5.20991 0.91626C2.3366 0.91626 0 3.2017 0 6.01054V13.3765C0 16.1853 2.3366 18.4695 5.20991 18.4695H12.7901C15.6634 18.4695 18 16.1853 18 13.3765V6.01054C18 3.2017 15.6634 0.91626 12.7901 0.91626H5.20991V0.91626ZM5.20991 2.42527H12.7901C14.835 2.42527 16.4577 4.01146 16.4577 6.01054V13.3765C16.4577 15.3756 14.835 16.9605 12.7901 16.9605H5.20991C3.16493 16.9605 1.54362 15.3756 1.54362 13.3765V6.01054C1.54362 4.01146 3.16493 2.42527 5.20991 2.42527ZM13.8308 3.93425C13.2345 3.93425 12.7514 4.40652 12.7514 4.98941C12.7514 5.57233 13.2345 6.04458 13.8308 6.04458C14.4271 6.04458 14.9102 5.57233 14.9102 4.98941C14.9102 4.40652 14.4271 3.93425 13.8308 3.93425ZM9 5.17346C6.45569 5.17346 4.37685 7.20567 4.37685 9.69289C4.37685 12.1801 6.45569 14.2123 9 14.2123C11.5443 14.2123 13.6244 12.1801 13.6244 9.69289C13.6244 7.20567 11.5443 5.17346 9 5.17346ZM9 6.68247C10.7102 6.68247 12.0808 8.02105 12.0808 9.69289C12.0808 11.3647 10.7102 12.7033 9 12.7033C7.28978 12.7033 5.92047 11.3647 5.92047 9.69289C5.92047 8.02105 7.28978 6.68247 9 6.68247Z" fill="#5C5C50"/>
</svg>
