<svg width="17" height="15" viewBox="0 0 17 15" fill="none" xmlns="http://www.w3.org/2000/svg">
<path d="M17 2.01818C16.3748 2.29236 15.7026 2.47766 14.9972 2.56115C15.7171 2.1344 16.2699 1.45899 16.5303 0.654356C15.8565 1.04948 15.1104 1.33608 14.3156 1.49057C13.6797 0.820882 12.7733 0.402283 11.7702 0.402283C9.84399 0.402283 8.28278 1.9453 8.28278 3.84878C8.28278 4.11901 8.31334 4.38214 8.37304 4.63424C5.47446 4.49069 2.90469 3.11814 1.18455 1.03313C0.884335 1.54194 0.712366 2.13391 0.712366 2.76566C0.712366 3.96157 1.32781 5.01634 2.26388 5.63464C1.69221 5.61698 1.15438 5.46187 0.684154 5.20353C0.683485 5.21806 0.68348 5.23238 0.68348 5.24679C0.68348 6.91701 1.88579 8.30971 3.48108 8.62655C3.18868 8.70533 2.88065 8.747 2.56255 8.747C2.33759 8.747 2.11949 8.72596 1.90617 8.68555C2.35027 10.0548 3.63801 11.0514 5.1644 11.0793C3.96982 12.0039 2.46628 12.5546 0.832201 12.5546C0.55089 12.5546 0.273057 12.5382 0 12.5065C1.54405 13.4844 3.37699 14.0548 5.34672 14.0548C11.7614 14.0548 15.2689 8.80316 15.2689 4.24823C15.2689 4.09887 15.2654 3.95053 15.2591 3.80272C15.9402 3.31639 16.5314 2.70952 16.9992 2.0182" fill="#5C5C50"/>
</svg>
